<?xml version="1.0" encoding="UTF-8" standalone="no"?>
<!-- Created with Inkscape (http://www.inkscape.org/) -->

<svg
   version="1.1"
   id="svg2"
   xml:space="preserve"
   width="558.33704"
   height="108.75333"
   viewBox="0 0 558.33704 108.75333"
   sodipodi:docname="Containership_Logo.svg"
   inkscape:version="1.1.1 (3bf5ae0d25, 2021-09-20)"
   xmlns:inkscape="http://www.inkscape.org/namespaces/inkscape"
   xmlns:sodipodi="http://sodipodi.sourceforge.net/DTD/sodipodi-0.dtd"
   xmlns="http://www.w3.org/2000/svg"
   xmlns:svg="http://www.w3.org/2000/svg"><defs
     id="defs6"><clipPath
       clipPathUnits="userSpaceOnUse"
       id="clipPath16"><path
         d="M 0,99 H 432 V 0 H 0 Z"
         id="path14" /></clipPath></defs><sodipodi:namedview
     id="namedview4"
     pagecolor="#ffffff"
     bordercolor="#666666"
     borderopacity="1.0"
     inkscape:pageshadow="2"
     inkscape:pageopacity="0.0"
     inkscape:pagecheckerboard="0"
     showgrid="false"
     fit-margin-top="0"
     fit-margin-left="0"
     fit-margin-right="0"
     fit-margin-bottom="0"
     inkscape:zoom="1.9565972"
     inkscape:cx="278.28926"
     inkscape:cy="52.642413"
     inkscape:window-width="1920"
     inkscape:window-height="1010"
     inkscape:window-x="-6"
     inkscape:window-y="-6"
     inkscape:window-maximized="1"
     inkscape:current-layer="g8" /><g
     id="g8"
     inkscape:groupmode="layer"
     inkscape:label="Containership_Logo"
     transform="matrix(1.3333333,0,0,-1.3333333,-9.5021331,118.91533)"><g
       id="g10"><g
         id="g12"
         clip-path="url(#clipPath16)"><g
           id="g18"
           transform="translate(42.8789,8.125)"><path
             d="m 0,0 c -0.578,0.017 -1.147,0.177 -1.646,0.465 l -31.856,18.391 c -1.08,0.624 -1.75,1.786 -1.75,3.032 v 36.784 c 0,0.686 0.1,1.217 0.307,1.623 l 0.024,0.046 0.013,0.05 c 0.031,0.077 0.357,0.665 1.033,1.158 0.166,0.111 0.436,0.26 0.729,0.422 0.18,0.099 0.369,0.204 0.552,0.31 l 30.857,17.814 c 0.528,0.305 1.133,0.467 1.751,0.467 0.706,0 1.311,-0.162 1.84,-0.467 l 28.474,-16.44 0.098,-0.081 0.433,-0.256 0.287,-0.151 c 0.95,-0.502 2.25,-1.189 2.964,-1.733 l 0.097,-0.071 c 0.323,-0.28 0.543,-0.536 0.713,-0.818 l 0.011,-0.015 c 0.286,-0.48 0.438,-1.027 0.438,-1.581 v -13.47 c 0,-0.178 -0.096,-0.344 -0.25,-0.433 l -5.232,-3.02 c -0.079,-0.046 -0.162,-0.068 -0.248,-0.068 -0.242,0 -0.502,0.191 -0.502,0.501 v 12.146 c 0,1.606 -0.864,3.101 -2.255,3.901 L 2.262,72.672 C 1.597,73.055 0.836,73.263 0.063,73.271 -0.72,73.263 -1.48,73.055 -2.146,72.671 L -26.823,58.424 c -0.734,-0.424 -1.331,-1.044 -1.728,-1.793 -0.341,-0.645 -0.522,-1.373 -0.522,-2.104 V 26.033 c 0,-1.603 0.863,-3.096 2.25,-3.897 L -2.146,7.89 C -1.47,7.499 -0.699,7.29 0.085,7.287 0.873,7.29 1.645,7.499 2.321,7.89 l 24.566,14.183 c 1.388,0.8 2.25,2.293 2.25,3.897 v 8.233 c 0,0.178 0.096,0.344 0.251,0.434 l 5.231,3.019 c 0.078,0.045 0.162,0.069 0.248,0.069 0.241,0 0.502,-0.193 0.502,-0.502 V 21.888 c 0,-0.561 -0.144,-1.128 -0.415,-1.639 L 34.92,20.186 34.906,20.114 c -0.017,-0.081 -0.13,-0.391 -0.889,-0.987 -1.187,-0.921 -2.98,-1.861 -3.841,-2.313 -0.234,-0.123 -0.409,-0.214 -0.5,-0.267 L 1.821,0.464 C 1.292,0.159 0.687,-0.002 0.069,-0.002 H 0.062 Z"
             style="fill:#343e47;fill-opacity:1;fill-rule:nonzero;stroke:none"
             id="path20" /></g><g
           id="g22"
           transform="translate(42.8906,89.1865)"><path
             d="m 0,0 c -0.69,0 -1.38,-0.176 -1.999,-0.533 l -30.856,-17.815 c -0.496,-0.286 -1.026,-0.559 -1.326,-0.76 -0.795,-0.581 -1.182,-1.288 -1.221,-1.431 -0.282,-0.553 -0.362,-1.208 -0.362,-1.85 v -36.784 c 0,-1.43 0.762,-2.75 2,-3.465 L -1.908,-81.03 c 0.583,-0.337 1.231,-0.513 1.882,-0.532 v -0.002 -0.001 h 10e-4 c 0.007,0 0.013,0.001 0.02,0.001 h 0.001 c 0.004,0 0.007,0 0.011,0 v 10e-4 H 0.06 c 0.69,0 1.38,0.176 1.999,0.533 l 27.856,16.083 c 0.434,0.25 2.877,1.438 4.355,2.586 0.015,0.011 0.03,0.022 0.044,0.033 0.581,0.456 0.993,0.902 1.07,1.281 0.302,0.568 0.473,1.208 0.473,1.874 v 15.335 c 0,0.583 -0.479,1.001 -1.002,1.001 -0.166,0 -0.337,-0.042 -0.498,-0.136 l -5.232,-3.02 c -0.309,-0.178 -0.5,-0.508 -0.5,-0.866 v -8.233 c 0,-1.429 -0.762,-2.749 -2,-3.464 L 2.059,-72.739 c -0.614,-0.355 -1.298,-0.532 -1.983,-0.535 -0.686,0.003 -1.37,0.18 -1.984,0.535 l -24.676,14.247 c -1.238,0.714 -2,2.034 -2,3.464 v 28.494 c 0,0.663 0.164,1.303 0.463,1.87 0.347,0.654 0.873,1.211 1.537,1.594 l 24.676,14.247 c 0.605,0.349 1.279,0.525 1.954,0.532 0.676,-0.007 1.35,-0.183 1.955,-0.532 l 24.62,-14.166 c 1.24,-0.714 2.004,-2.036 2.004,-3.467 v -12.147 c 0,-0.583 0.48,-1.001 1.002,-1.001 0.166,0 0.337,0.042 0.498,0.136 l 5.232,3.02 c 0.31,0.178 0.5,0.509 0.5,0.866 v 13.47 c 0,0.659 -0.183,1.29 -0.509,1.837 l 0.002,0.002 c -0.005,0.004 -0.009,0.01 -0.014,0.016 -0.2,0.331 -0.457,0.628 -0.757,0.882 -0.027,0.023 -0.047,0.048 -0.078,0.072 -0.009,0.008 -0.022,0.016 -0.032,0.024 -0.022,0.017 -0.045,0.032 -0.068,0.05 -0.82,0.624 -2.337,1.407 -3.306,1.92 l -0.362,0.206 c -0.054,0.046 -0.105,0.095 -0.17,0.132 L 2.092,-0.533 C 1.473,-0.176 0.783,0 0.092,0 H 0.047 Z m 0.092,0 v -1 c 0.529,0 1.048,-0.138 1.5,-0.399 l 28.455,-16.429 c -0.003,0.002 -0.005,0.003 -0.006,0.003 -0.001,0 0,-0.001 0.004,-0.005 l 0.044,-0.038 0.007,-0.005 0.067,-0.055 0.075,-0.043 0.388,-0.221 0.272,-0.144 c 0.935,-0.494 2.216,-1.17 2.908,-1.697 l 0.038,-0.028 0.006,-0.003 0.013,-0.011 0.04,-0.039 0.031,-0.026 c 0.221,-0.186 0.405,-0.4 0.546,-0.635 l 0.039,-0.063 c 0.221,-0.391 0.338,-0.83 0.338,-1.274 v -13.47 l -5.232,-3.021 v 12.147 c 0,1.784 -0.96,3.444 -2.506,4.334 L 2.501,-7.958 C 1.762,-7.531 0.917,-7.3 0.035,-7.291 -0.825,-7.3 -1.669,-7.531 -2.408,-7.958 l -24.676,-14.246 c -0.816,-0.471 -1.48,-1.16 -1.92,-1.992 -0.38,-0.718 -0.58,-1.527 -0.58,-2.338 v -28.494 c 0,-1.781 0.957,-3.44 2.5,-4.33 l 24.676,-14.247 c 0.751,-0.435 1.609,-0.666 2.488,-0.669 0.87,0.003 1.728,0.234 2.479,0.669 l 24.566,14.183 c 1.543,0.89 2.5,2.549 2.5,4.33 v 8.233 l 5.232,3.021 v -15.335 c 0,-0.48 -0.123,-0.966 -0.357,-1.405 l -0.06,-0.1 -0.029,-0.142 c -0.001,-0.002 -0.099,-0.238 -0.707,-0.716 l -0.041,-0.03 -0.006,-0.005 c -1.114,-0.865 -2.882,-1.792 -3.732,-2.237 -0.238,-0.125 -0.417,-0.219 -0.51,-0.273 L 1.559,-80.164 C 1.11,-80.423 0.597,-80.561 0.035,-80.563 H 0.003 c -0.497,0.015 -0.985,0.153 -1.411,0.399 l -31.856,18.393 c -0.925,0.534 -1.5,1.529 -1.5,2.598 v 36.784 c 0,0.604 0.083,1.061 0.253,1.396 l 0.048,0.093 0.011,0.043 c 0.073,0.138 0.352,0.57 0.829,0.919 0.154,0.104 0.422,0.252 0.706,0.409 0.183,0.101 0.375,0.207 0.562,0.315 L -1.499,-1.399 C -1.047,-1.138 -0.528,-1 0,-1 h 0.053 0.005 l 0.034,1"
             style="fill:#343e47;fill-opacity:1;fill-rule:nonzero;stroke:none"
             id="path24" /></g><g
           id="g26"
           transform="translate(112.6602,56.4624)"><path
             d="m 0,0 c -1.597,0 -3.016,-0.353 -4.26,-1.059 -1.243,-0.707 -2.218,-1.704 -2.924,-2.993 -0.706,-1.289 -1.059,-2.779 -1.059,-4.467 0,-1.688 0.346,-3.177 1.036,-4.466 0.691,-1.289 1.642,-2.295 2.855,-3.017 1.213,-0.722 2.602,-1.082 4.168,-1.082 1.565,0 2.977,0.261 4.236,0.783 1.259,0.522 2.302,1.274 3.132,2.256 l 2.44,-2.486 c -1.105,-1.382 -2.51,-2.441 -4.213,-3.178 -1.704,-0.736 -3.631,-1.104 -5.78,-1.104 -2.364,0 -4.466,0.521 -6.308,1.565 -1.842,1.043 -3.278,2.494 -4.306,4.352 -1.029,1.857 -1.542,3.983 -1.542,6.377 0,2.395 0.513,4.528 1.542,6.401 1.028,1.872 2.464,3.331 4.306,4.375 1.842,1.043 3.944,1.565 6.308,1.565 2.057,0 3.907,-0.315 5.549,-0.944 C 6.822,2.249 8.197,1.336 9.302,0.139 L 6.953,-2.809 C 5.019,-0.937 2.701,0 0,0"
             style="fill:#343e47;fill-opacity:1;fill-rule:nonzero;stroke:none"
             id="path28" /></g><g
           id="g30"
           transform="translate(134.3721,55.4497)"><path
             d="m 0,0 c -1.243,-0.736 -2.21,-1.758 -2.901,-3.063 -0.691,-1.304 -1.036,-2.786 -1.036,-4.443 0,-1.688 0.345,-3.193 1.036,-4.513 0.691,-1.32 1.658,-2.341 2.901,-3.062 1.244,-0.722 2.663,-1.082 4.26,-1.082 1.565,0 2.97,0.36 4.213,1.082 1.243,0.721 2.211,1.742 2.901,3.062 0.691,1.32 1.036,2.825 1.036,4.513 0,1.657 -0.345,3.139 -1.036,4.443 C 10.684,-1.758 9.716,-0.736 8.473,0 7.23,0.736 5.825,1.105 4.26,1.105 2.663,1.105 1.244,0.736 0,0 m 10.729,3.27 c 1.889,-1.044 3.362,-2.496 4.421,-4.352 1.059,-1.857 1.589,-3.983 1.589,-6.378 0,-2.394 -0.53,-4.528 -1.589,-6.4 -1.059,-1.873 -2.532,-3.332 -4.421,-4.375 -1.888,-1.044 -4.044,-1.566 -6.469,-1.566 -2.457,0 -4.628,0.522 -6.516,1.566 -1.888,1.043 -3.362,2.494 -4.421,4.351 -1.059,1.858 -1.589,3.998 -1.589,6.424 0,2.395 0.53,4.521 1.589,6.378 1.059,1.856 2.533,3.308 4.421,4.352 1.888,1.042 4.059,1.565 6.516,1.565 2.425,0 4.581,-0.523 6.469,-1.565"
             style="fill:#343e47;fill-opacity:1;fill-rule:nonzero;stroke:none"
             id="path32" /></g><g
           id="g34"
           transform="translate(178.5088,57.7749)"><path
             d="m 0,0 c 1.627,-1.673 2.441,-3.983 2.441,-6.93 v -15.058 h -4.283 v 13.907 c 0,2.056 -0.575,3.66 -1.726,4.811 -1.152,1.152 -2.741,1.728 -4.766,1.728 -2.181,-0.031 -3.954,-0.729 -5.319,-2.096 -1.367,-1.366 -2.141,-3.138 -2.326,-5.318 v -13.032 h -4.282 v 24.36 h 4.282 v -5.158 c 1.627,3.469 4.712,5.234 9.256,5.296 C -3.868,2.51 -1.627,1.673 0,0"
             style="fill:#343e47;fill-opacity:1;fill-rule:nonzero;stroke:none"
             id="path36" /></g><g
           id="g38"
           transform="translate(202.8228,37.3989)"><path
             d="m 0,0 c -1.873,-1.197 -3.776,-1.796 -5.71,-1.796 -1.934,0 -3.499,0.575 -4.697,1.727 -1.197,1.151 -1.796,2.893 -1.796,5.226 v 13.492 h -3.453 v 3.27 h 3.453 v 6.539 h 4.329 v -6.539 h 7.46 v -3.27 h -7.46 V 5.939 c 0,-1.35 0.245,-2.317 0.737,-2.9 0.491,-0.584 1.227,-0.875 2.21,-0.875 1.166,0 2.425,0.384 3.776,1.151 z"
             style="fill:#343e47;fill-opacity:1;fill-rule:nonzero;stroke:none"
             id="path40" /></g><g
           id="g42"
           transform="translate(221.4961,40.5991)"><path
             d="m 0,0 c 1.396,0.967 2.232,2.248 2.51,3.845 v 2.44 h -7.139 c -1.933,0 -3.369,-0.292 -4.305,-0.875 -0.937,-0.583 -1.405,-1.504 -1.405,-2.763 0,-1.258 0.476,-2.255 1.428,-2.993 0.951,-0.736 2.225,-1.105 3.822,-1.105 1.995,0 3.691,0.484 5.089,1.451 m 2.555,-4.812 v 3.408 c -1.811,-2.395 -4.651,-3.592 -8.519,-3.592 -1.689,0 -3.17,0.322 -4.444,0.967 -1.274,0.644 -2.256,1.534 -2.947,2.671 -0.691,1.134 -1.036,2.409 -1.036,3.822 0,2.179 0.806,3.906 2.417,5.18 1.612,1.273 3.861,1.926 6.746,1.957 H 2.51 v 1.151 c 0,1.719 -0.531,3.047 -1.59,3.983 -1.059,0.937 -2.602,1.405 -4.627,1.405 -2.457,0 -4.959,-0.875 -7.507,-2.624 l -1.796,2.946 c 1.75,1.136 3.369,1.957 4.859,2.464 1.488,0.507 3.261,0.76 5.318,0.76 3.04,0 5.388,-0.745 7.046,-2.234 1.658,-1.489 2.502,-3.568 2.533,-6.239 L 6.791,-4.812 Z"
             style="fill:#343e47;fill-opacity:1;fill-rule:nonzero;stroke:none"
             id="path44" /></g><path
           d="m 237.082,60.147 h 4.282 v -24.36 h -4.282 z m 4.029,8.934 c 0.507,-0.523 0.76,-1.183 0.76,-1.981 0,-0.799 -0.253,-1.459 -0.76,-1.98 -0.507,-0.523 -1.144,-0.783 -1.911,-0.783 -0.767,0 -1.404,0.26 -1.911,0.783 -0.506,0.521 -0.76,1.181 -0.76,1.98 0,0.798 0.254,1.458 0.76,1.981 0.507,0.521 1.144,0.782 1.911,0.782 0.767,0 1.404,-0.261 1.911,-0.782"
           style="fill:#343e47;fill-opacity:1;fill-rule:nonzero;stroke:none"
           id="path46" /><g
           id="g48"
           transform="translate(271.1123,57.7749)"><path
             d="m 0,0 c 1.627,-1.673 2.44,-3.983 2.44,-6.93 v -15.058 h -4.282 v 13.907 c 0,2.056 -0.576,3.66 -1.727,4.811 -1.152,1.152 -2.74,1.728 -4.766,1.728 -2.181,-0.031 -3.953,-0.729 -5.318,-2.096 -1.368,-1.366 -2.142,-3.138 -2.326,-5.318 v -13.032 h -4.283 v 24.36 h 4.283 v -5.158 c 1.626,3.469 4.712,5.234 9.255,5.296 C -3.868,2.51 -1.628,1.673 0,0"
             style="fill:#343e47;fill-opacity:1;fill-rule:nonzero;stroke:none"
             id="path50" /></g><g
           id="g52"
           transform="translate(299.708,49.6011)"><path
             d="m 0,0 c -0.123,2.211 -0.859,3.953 -2.21,5.227 -1.352,1.274 -3.132,1.911 -5.342,1.911 -2.149,0 -3.937,-0.645 -5.365,-1.934 C -14.344,3.915 -15.196,2.18 -15.473,0 Z m 0.967,7.345 c 1.934,-2.226 2.901,-5.319 2.901,-9.279 0,-0.614 -0.015,-1.075 -0.046,-1.381 h -19.249 c 0.338,-2.18 1.251,-3.914 2.74,-5.204 1.49,-1.289 3.324,-1.934 5.503,-1.934 1.443,0 2.787,0.261 4.03,0.783 1.243,0.522 2.325,1.259 3.246,2.21 L 2.44,-9.9 c -1.197,-1.289 -2.64,-2.288 -4.328,-2.994 -1.688,-0.706 -3.561,-1.058 -5.618,-1.058 -2.394,0 -4.52,0.514 -6.378,1.542 -1.857,1.028 -3.3,2.479 -4.328,4.351 -1.029,1.873 -1.543,4.007 -1.543,6.402 0,2.394 0.514,4.519 1.543,6.378 1.028,1.856 2.463,3.315 4.306,4.374 1.842,1.059 3.944,1.589 6.308,1.589 3.776,0 6.631,-1.114 8.565,-3.339"
             style="fill:#343e47;fill-opacity:1;fill-rule:nonzero;stroke:none"
             id="path54" /></g><g
           id="g56"
           transform="translate(318.2656,58.8804)"><path
             d="M 0,0 C 1.474,0.905 3.223,1.373 5.249,1.404 V -2.74 c -2.486,0.093 -4.497,-0.553 -6.032,-1.934 -1.535,-1.382 -2.41,-3.239 -2.625,-5.572 V -23.094 H -7.69 V 1.267 h 4.282 v -5.25 C -2.61,-2.233 -1.474,-0.906 0,0"
             style="fill:#343e47;fill-opacity:1;fill-rule:nonzero;stroke:none"
             id="path58" /></g><g
           id="g60"
           transform="translate(342.7402,56.2329)"><path
             d="m 0,0 c -1.213,0.368 -2.372,0.552 -3.477,0.552 -1.29,0 -2.326,-0.238 -3.108,-0.713 -0.783,-0.477 -1.175,-1.206 -1.175,-2.188 0,-0.983 0.438,-1.727 1.313,-2.233 0.875,-0.507 2.203,-1.022 3.983,-1.543 1.689,-0.491 3.069,-0.982 4.145,-1.474 1.074,-0.491 1.987,-1.213 2.74,-2.164 0.752,-0.952 1.128,-2.21 1.128,-3.776 0,-2.302 -0.868,-4.052 -2.602,-5.249 -1.735,-1.197 -3.891,-1.796 -6.469,-1.796 -1.813,0 -3.57,0.291 -5.274,0.875 -1.703,0.583 -3.139,1.411 -4.305,2.486 l 1.612,3.131 c 1.012,-0.921 2.263,-1.657 3.753,-2.21 1.488,-0.552 2.939,-0.829 4.351,-0.829 1.412,0 2.548,0.261 3.407,0.783 0.86,0.522 1.29,1.32 1.29,2.395 0,1.105 -0.453,1.933 -1.358,2.486 -0.906,0.553 -2.279,1.106 -4.122,1.658 -1.627,0.46 -2.955,0.928 -3.982,1.405 -1.03,0.475 -1.905,1.174 -2.625,2.095 -0.722,0.921 -1.082,2.119 -1.082,3.592 0,2.272 0.828,3.975 2.486,5.112 1.658,1.134 3.729,1.703 6.217,1.703 1.473,0 2.924,-0.207 4.351,-0.621 C 2.625,3.062 3.86,2.501 4.904,1.796 L 3.338,-1.474 C 2.325,-0.86 1.212,-0.369 0,0"
             style="fill:#00f3d6;fill-opacity:1;fill-rule:nonzero;stroke:none"
             id="path62" /></g><g
           id="g64"
           transform="translate(375.6416,57.7749)"><path
             d="m 0,0 c 1.627,-1.673 2.44,-3.983 2.44,-6.93 v -15.058 h -4.282 v 13.907 c 0,2.056 -0.576,3.66 -1.727,4.811 -1.152,1.152 -2.74,1.728 -4.766,1.728 -2.364,-0.031 -4.236,-0.829 -5.618,-2.395 -1.382,-1.566 -2.072,-3.591 -2.072,-6.079 v -11.972 h -4.283 V 12.18 h 4.283 V -2.878 c 1.627,3.53 4.727,5.326 9.301,5.388 C -3.868,2.51 -1.628,1.673 0,0"
             style="fill:#00f3d6;fill-opacity:1;fill-rule:nonzero;stroke:none"
             id="path66" /></g><path
           d="m 386.877,60.147 h 4.282 v -24.36 h -4.282 z m 4.029,8.934 c 0.507,-0.523 0.76,-1.183 0.76,-1.981 0,-0.799 -0.253,-1.459 -0.76,-1.98 -0.507,-0.523 -1.144,-0.783 -1.911,-0.783 -0.767,0 -1.404,0.26 -1.911,0.783 -0.506,0.521 -0.76,1.181 -0.76,1.98 0,0.798 0.254,1.458 0.76,1.981 0.507,0.521 1.144,0.782 1.911,0.782 0.767,0 1.404,-0.261 1.911,-0.782"
           style="fill:#00f3d6;fill-opacity:1;fill-rule:nonzero;stroke:none"
           id="path68" /><g
           id="g70"
           transform="translate(417.5674,40.4839)"><path
             d="m 0,0 c 1.243,0.736 2.21,1.765 2.901,3.085 0.691,1.32 1.037,2.81 1.037,4.467 0,1.627 -0.354,3.1 -1.06,4.421 -0.706,1.319 -1.674,2.348 -2.9,3.085 -1.229,0.737 -2.625,1.105 -4.191,1.105 -1.566,0 -2.971,-0.368 -4.214,-1.105 -1.243,-0.737 -2.219,-1.766 -2.924,-3.085 -0.707,-1.321 -1.059,-2.794 -1.059,-4.421 0,-1.689 0.352,-3.186 1.059,-4.489 0.705,-1.306 1.681,-2.327 2.924,-3.063 1.243,-0.737 2.648,-1.105 4.214,-1.105 1.566,0 2.97,0.368 4.213,1.105 M 2.694,18.235 C 4.474,17.191 5.855,15.732 6.838,13.86 7.82,11.987 8.312,9.839 8.312,7.414 8.312,5.02 7.828,2.894 6.861,1.036 5.895,-0.821 4.528,-2.265 2.763,-3.293 0.997,-4.321 -1.021,-4.835 -3.292,-4.835 c -2.058,0 -3.868,0.43 -5.435,1.289 -1.565,0.859 -2.794,2.087 -3.683,3.684 v -13.769 h -4.282 v 33.294 h 4.282 v -4.835 c 0.889,1.596 2.11,2.823 3.661,3.684 1.55,0.859 3.338,1.289 5.364,1.289 2.272,0 4.298,-0.523 6.079,-1.566"
             style="fill:#00f3d6;fill-opacity:1;fill-rule:nonzero;stroke:none"
             id="path72" /></g><g
           id="g74"
           transform="translate(57.6323,56.916)"><path
             d="m 0,0 -12.741,-7.356 c -1.238,-0.715 -2.762,-0.715 -4,0 L -35.162,3.279 c -1.333,0.77 -1.333,2.694 0,3.464 l 18.421,10.635 c 1.238,0.715 2.762,0.715 4,0 l 7.52,-4.341 c 0.667,-0.386 0.667,-1.348 0,-1.733 L -10.4,8.314 c -0.31,-0.179 -0.691,-0.179 -1,0 l -1.341,0.774 c -1.238,0.714 -2.762,0.714 -4,0 l -5.561,-3.211 c -0.667,-0.385 -0.667,-1.347 0,-1.732 l 5.561,-3.211 c 1.238,-0.714 2.762,-0.714 4,0 l 1.028,0.593 0.011,-0.02 12.725,7.347 C 1.171,8.939 1.335,8.981 1.5,8.985 V 8.988 C 1.504,8.988 1.508,8.986 1.512,8.986 1.57,8.987 1.628,8.976 1.687,8.967 1.716,8.962 1.746,8.963 1.774,8.955 1.86,8.933 1.944,8.899 2.023,8.854 L 7.68,5.588 C 8.077,5.388 8.267,5.124 8.411,4.858 8.584,4.559 8.68,4.214 8.68,3.856 v -24.547 -0.214 c 0,-0.72 -0.387,-1.385 -1.013,-1.74 L 4.875,-24.229 -12.741,-34.4 c -0.155,-0.09 -0.316,-0.168 -0.479,-0.235 -0.058,-0.024 -0.118,-0.039 -0.176,-0.06 -0.108,-0.038 -0.215,-0.079 -0.325,-0.108 -0.068,-0.018 -0.137,-0.027 -0.206,-0.041 -0.102,-0.021 -0.204,-0.046 -0.307,-0.059 -0.076,-0.01 -0.152,-0.009 -0.227,-0.014 -0.098,-0.007 -0.195,-0.019 -0.293,-0.018 -0.004,0 -0.009,-10e-4 -0.014,-10e-4 v 0.002 c -0.681,0.004 -1.362,0.182 -1.973,0.534 l -20.421,11.79 c -0.618,0.357 -1,1.017 -1,1.732 v 18.054 c 0,0.769 0.834,1.251 1.5,0.866 l 5.18,-2.991 c 0.31,-0.178 0.5,-0.509 0.5,-0.866 v -10.918 c 0,-0.714 0.381,-1.375 1,-1.732 l 13.241,-7.644 c 0.619,-0.358 1.309,-0.537 2,-0.537 0.345,0 0.691,0.045 1.027,0.134 0.337,0.09 0.664,0.224 0.973,0.403 l 13.243,7.669 c 0.618,0.357 0.998,1.017 0.998,1.73 V -0.866 C 1.5,-0.097 0.667,0.385 0,0"
             style="fill:#00f3d6;fill-opacity:1;fill-rule:nonzero;stroke:none"
             id="path76" /></g></g></g></g></svg>
