<?xml version="1.0" encoding="UTF-8" standalone="no"?>
<svg
   width="500"
   height="98.599686"
   viewBox="0 0 8000 1577.595"
   class="logo-mark"
   version="1.1"
   id="svg4"
   sodipodi:docname="GoDaddy_logo.svg"
   inkscape:version="1.1.1 (3bf5ae0d25, 2021-09-20)"
   xmlns:inkscape="http://www.inkscape.org/namespaces/inkscape"
   xmlns:sodipodi="http://sodipodi.sourceforge.net/DTD/sodipodi-0.dtd"
   xmlns="http://www.w3.org/2000/svg"
   xmlns:svg="http://www.w3.org/2000/svg">
  <defs
     id="defs8" />
  <sodipodi:namedview
     id="namedview6"
     pagecolor="#ffffff"
     bordercolor="#666666"
     borderopacity="1.0"
     inkscape:pageshadow="2"
     inkscape:pageopacity="0.0"
     inkscape:pagecheckerboard="0"
     showgrid="false"
     fit-margin-top="0"
     fit-margin-left="0"
     fit-margin-right="0"
     fit-margin-bottom="0"
     inkscape:zoom="2.266"
     inkscape:cx="250"
     inkscape:cy="49.426302"
     inkscape:window-width="1920"
     inkscape:window-height="1010"
     inkscape:window-x="-6"
     inkscape:window-y="-6"
     inkscape:window-maximized="1"
     inkscape:current-layer="svg4" />
  <path
     d="M 1487.668,70.13559 C 1308.466,-41.642472 1072.4579,-15.290649 862.02944,117.04762 652.22839,-15.194122 416.12378,-41.642472 237.11478,70.13559 -46.094917,247.11752 -80.458466,702.91718 160.23117,1088.1558 c 177.46456,284.1267 455.02745,450.5389 702.13612,447.45 247.06041,3.0889 524.62321,-163.3233 702.08781,-447.4018 C 1805.0482,702.86892 1770.8777,247.11752 1487.668,70.087327 Z M 290.54238,1006.9284 A 922.41033,922.41033 0 0 1 179.39174,752.43544 727.18483,727.18483 0 0 1 155.26004,512.56628 c 10.76274,-142.23227 68.67883,-253.14159 163.17859,-312.26427 94.4515,-59.07442 219.30895,-62.50112 352.27465,-9.79747 20.22237,8.15651 40.01037,17.2783 59.26747,27.41361 A 1085.7337,1085.7337 0 0 0 539.05069,447.36241 C 392.86081,681.29517 348.21716,941.67628 399.23158,1149.1607 A 951.89927,951.89927 0 0 1 290.49412,1006.9284 Z M 1545.5359,752.43544 a 924.63045,924.63045 0 0 1 -111.1024,254.44476 952.38191,952.38191 0 0 1 -108.7858,142.5701 c 45.6572,-186.05549 14.6239,-413.90705 -97.2025,-627.6657 a 28.137569,28.137569 0 0 0 -40.3964,-11.00406 l -348.70316,217.9093 a 28.475413,28.475413 0 0 0 -9.07352,39.23816 l 51.15921,81.80648 a 28.475413,28.475413 0 0 0 39.28642,9.07352 L 1146.7353,717.63752 c 7.2878,21.91159 14.6238,43.48534 20.0776,65.78303 21.3324,78.04194 29.4889,159.12447 24.1317,239.86915 -10.7628,142.3771 -68.7271,253.2382 -163.1304,312.3126 a 318.87636,318.87636 0 0 1 -161.68237,46.8155 h -7.23951 A 318.49026,318.49026 0 0 1 697.20989,1335.6023 C 602.71013,1276.5279 544.74577,1165.6668 534.03129,1023.2415 528.72232,942.54502 536.83057,861.46249 558.163,783.42055 A 949.38958,949.38958 0 0 1 849.19137,317.67863 729.16363,729.16363 0 0 1 1053.8765,190.79412 c 132.6278,-52.70365 257.7266,-49.22868 352.2264,9.79747 94.4997,59.07442 152.3675,169.98374 163.1303,312.26427 a 729.01884,729.01884 0 0 1 -23.6491,239.57958 z M 3574.6262,622.22076 c -195.9494,0 -354.2534,152.94675 -354.2534,347.49656 0,193.24668 158.304,343.68378 354.2534,343.68378 197.2043,0 355.5083,-150.1957 355.5083,-343.63552 0,-194.50155 -158.0627,-347.49656 -355.5083,-347.49656 z m 0,509.51684 c -90.3008,0 -159.0279,-73.0225 -159.0279,-163.32339 0,-90.30084 68.7271,-164.43345 159.0279,-164.43345 91.604,0 160.3311,74.32566 160.3311,164.67477 0,90.25257 -68.7271,163.37167 -160.3311,163.37167 z m 797.2151,-776.41351 h -360.4312 a 28.958047,28.958047 0 0 0 -29.4407,29.53721 v 878.7802 a 29.199364,29.199364 0 0 0 29.4407,31.2747 h 360.4312 c 288.4704,0 488.9083,-191.8471 488.9083,-470.95438 0,-280.79653 -200.4379,-468.63773 -488.9083,-468.63773 z m 8.5426,753.97101 H 4183.1313 V 540.46254 h 197.2526 c 159.6553,0 269.6959,119.40368 269.6959,283.11317 0,161.00674 -110.0406,285.71939 -269.6959,285.71939 z M 5578.2818,641.14001 h -135.572 a 30.55074,30.55074 0 0 0 -28.0893,29.53721 v 40.20342 c -30.8886,-51.01442 -100.6292,-88.56336 -187.4551,-88.56336 -169.0667,0 -327.3707,132.77265 -327.3707,344.84208 0,210.91114 156.9044,346.09694 326.0194,346.09694 87.1637,0 158.304,-37.5007 189.1925,-88.5151 v 41.5548 a 28.330623,28.330623 0 0 0 28.0893,28.2341 h 135.5237 a 27.558408,27.558408 0 0 0 28.1858,-28.2341 V 670.67722 a 28.668467,28.668467 0 0 0 -28.5719,-29.53721 z m -315.3049,492.09379 c -89.77,0 -157.1457,-69.0167 -157.1457,-164.6748 0,-95.65808 67.424,-164.57824 157.1457,-164.57824 89.7699,0 157.1939,68.82363 157.1939,164.48171 0,95.70633 -67.3274,164.67483 -157.1939,164.67483 z M 6338.9614,355.32409 h -135.5237 a 28.57194,28.57194 0 0 0 -29.4406,28.18583 v 324.71624 c -31.2747,-48.35994 -102.0289,-85.90888 -190.544,-85.90888 -167.7636,0 -323.3649,132.77265 -323.3649,344.84208 0,210.91114 156.9527,346.09694 326.0194,346.09694 87.1637,0 152.995,-37.5007 189.1926,-88.5151 v 41.5548 c 0,15.5408 12.5967,28.1376 28.1375,28.2341 h 135.5237 a 27.510145,27.510145 0 0 0 28.1858,-28.2341 V 383.70297 a 27.510145,27.510145 0 0 0 -28.1858,-28.37888 z m -315.2566,779.55061 c -89.3838,0 -156.2287,-69.6923 -156.2287,-166.41223 0,-96.67161 67.0862,-166.36398 156.2287,-166.36398 89.0942,0 156.2287,69.69237 156.2287,166.36398 0,96.71993 -66.7966,166.41223 -156.2287,166.41223 z M 7099.4962,355.32409 h -135.2823 a 28.668467,28.668467 0 0 0 -29.5372,28.18583 v 324.71624 c -30.8886,-48.35994 -102.0289,-85.90888 -190.4957,-85.90888 -167.8119,0 -323.3649,132.77265 -323.3649,344.84208 0,210.91114 157.0009,346.09694 326.0194,346.09694 87.212,0 152.8985,-37.5007 189.1926,-88.5151 v 41.5548 a 28.330623,28.330623 0 0 0 28.1858,28.2341 h 135.2823 a 27.413618,27.413618 0 0 0 28.0893,-28.2341 V 383.70297 a 27.413618,27.413618 0 0 0 -28.0893,-28.37888 z m -315.2566,779.55061 c -89.4321,0 -156.2286,-69.6923 -156.2286,-166.41223 0,-96.67161 67.0861,-166.36398 156.2286,-166.36398 89.0943,0 156.2287,69.69237 156.2287,166.36398 0,96.71993 -66.6035,166.41223 -155.9873,166.41223 z M 7841.4979,686.84546 7639.2742,1380.3907 c -39.0451,123.3613 -126.1123,197.2043 -261.6359,197.2043 -61.6324,0 -117.7627,-12.5967 -161.6824,-37.742 -25.6279,-14.6238 -46.8638,-27.9928 -46.8638,-49.3734 0,-13.2725 4.2954,-20.1259 12.0658,-32.5778 l 40.1552,-60.1363 c 11.3419,-16.7956 19.6915,-22.2494 31.8538,-22.2494 a 46.332875,46.332875 0 0 1 26.738,9.2666 c 25.2417,16.3613 48.6495,30.4059 84.3644,30.4059 41.6996,0 73.5535,-13.3689 90.7352,-63.032 l 17.3749,-57.5782 h -81.8548 c -20.1741,0 -31.2747,-12.0176 -36.2458,-28.1859 L 7173.291,686.84546 c -6.7569,-22.82859 -0.5309,-45.65718 32.9639,-45.65718 h 142.5701 c 17.3749,0 29.5855,5.9364 37.2111,30.88858 l 133.6897,466.70724 124.9539,-466.70724 c 3.9576,-16.11998 14.7686,-30.88858 36.1976,-30.88858 h 135.2341 c 26.6414,-0.0483 34.7014,18.67794 25.3865,45.65718 z M 3169.3101,893.12329 v 370.47001 a 30.164632,30.164632 0 0 1 -30.6473,30.599 h -111.8263 a 30.068106,30.068106 0 0 1 -30.599,-30.599 v -97.2508 c -71.0438,89.6734 -194.5016,146.1416 -334.1759,146.1416 -262.2634,0 -467.2381,-197.3008 -467.2381,-478.19391 0,-291.89712 221.2878,-493.10728 500.8295,-493.10728 206.3743,0 371.3386,88.75641 444.6025,267.23451 a 40.686056,40.686056 0 0 1 3.3784,14.91339 c 0,8.4461 -5.5985,14.81687 -23.456,20.99459 l -130.6008,50.29047 a 33.494808,33.494808 0 0 1 -24.6626,0.43437 37.790252,37.790252 0 0 1 -15.6373,-17.90572 C 2902.4134,588.002 2818.966,527.52794 2690.5853,527.52794 c -166.5088,0 -285.8159,130.02163 -285.8159,298.65399 0,163.46818 101.5462,297.88177 290.5457,297.88177 99.4226,0 178.7194,-46.8155 215.6892,-98.3125 h -118.004 a 30.164632,30.164632 0 0 1 -30.599,-30.64732 V 894.4264 a 30.164632,30.164632 0 0 1 30.599,-30.599 h 345.6143 a 29.151101,29.151101 0 0 1 30.6472,29.29589 z M 7845.2142,503.9754 v -8.977 c 0,-0.62742 0.1931,-1.25485 0.5792,-1.73748 a 2.5096974,2.5096974 0 0 1 1.6409,-0.62743 h 57.0957 c 0.6274,0 1.2065,0.24132 1.6409,0.62743 0.4344,0.48263 0.6274,1.11006 0.6274,1.73748 v 8.977 a 2.5096974,2.5096974 0 0 1 -0.6274,1.64095 2.2683804,2.2683804 0 0 1 -1.6409,0.62743 h -20.8498 v 56.3234 a 2.4131706,2.4131706 0 0 1 -2.3167,2.31664 h -10.811 a 2.1235901,2.1235901 0 0 1 -1.5444,-0.67569 2.2683804,2.2683804 0 0 1 -0.724,-1.64095 v -56.3234 h -20.8498 a 2.1235901,2.1235901 0 0 1 -2.2683,-2.26838 z m 99.8088,-9.31484 15.589,36.19756 15.6374,-36.19756 a 3.1853852,3.1853852 0 0 1 1.2548,-1.54443 4.1989168,4.1989168 0 0 1 2.1236,-0.48264 h 18.0988 a 2.1235901,2.1235901 0 0 1 2.2684,2.22012 v 67.76183 a 2.1235901,2.1235901 0 0 1 -2.1719,2.26838 h -10.1353 a 2.2683804,2.2683804 0 0 1 -1.6892,-0.62742 2.0270633,2.0270633 0 0 1 -0.6274,-1.64096 v -51.15921 l -16.7957,37.16282 a 4.0541266,4.0541266 0 0 1 -1.2548,1.83401 3.861073,3.861073 0 0 1 -2.0754,0.48264 h -8.3013 a 3.7645461,3.7645461 0 0 1 -2.027,-0.48264 3.5232291,3.5232291 0 0 1 -1.2549,-1.78574 l -16.6991,-37.16283 v 51.15922 a 2.5096974,2.5096974 0 0 1 -0.6275,1.59269 2.5096974,2.5096974 0 0 1 -1.5444,0.62742 h -10.4249 a 2.0270633,2.0270633 0 0 1 -1.4479,-0.62742 2.0270633,2.0270633 0 0 1 -0.6274,-1.64096 v -67.76183 a 2.1235901,2.1235901 0 0 1 2.2684,-2.22012 h 17.5679 c 0.6756,0 1.3996,0.14479 2.027,0.48264 0.4344,0.43437 0.724,0.96527 0.8688,1.54443 z"
     fill="#FFFFFF"
     id="path2"
     style="fill:#111111;fill-opacity:1;stroke-width:48.2634" />
</svg>
